<?xml version="1.0" standalone="no"?><!DOCTYPE svg PUBLIC "-//W3C//DTD SVG 1.1//EN" "http://www.w3.org/Graphics/SVG/1.1/DTD/svg11.dtd"><svg t="1608292225758" class="icon" viewBox="0 0 1024 1024" version="1.1" xmlns="http://www.w3.org/2000/svg" p-id="750" xmlns:xlink="http://www.w3.org/1999/xlink" width="16" height="16"><defs><style type="text/css">@font-face { font-family: element-icons; src: url("chrome-extension://moombeodfomdpjnpocobemoiaemednkg/fonts/element-icons.woff") format("woff"), url("chrome-extension://moombeodfomdpjnpocobemoiaemednkg/fonts/element-icons.ttf ") format("truetype"); }
</style></defs><path d="M331.53831788 463.74446838a51.43120233 51.43120233 0 1 1 79.03211152-65.83495549l414.46611155 497.41966371a51.43120233 51.43120233 0 1 1-79.03211153 65.83495549L331.53831788 463.74446838z m-39.51605575 151.72958815l94.26540016 30.391165-94.26540016 30.39116503-31.37152519 91.09808274-31.44693751-91.09808274L134.93839925 645.86522153l94.26540018-30.391165 31.44693751-91.17349508 31.37152519 91.17349508z m288.52753689-455.71665067l125.71233768 40.49641591-125.71233768 40.49641592-41.8538377 121.56466009-41.92924999-121.56466009-125.71233768-40.49641592 125.71233768-40.49641591L538.69596132 38.19274578l41.8538377 121.56466008z m214.24640155 293.65557466L889.06160075 483.87955786l-94.26540018 30.39116501-31.44693751 91.17349506-31.37152519-91.17349506-94.26540016-30.39116501 94.26540016-30.39116501 31.37152519-91.09808276 31.44693751 91.09808276z" p-id="751" fill="#515151"></path></svg>